<svg width="151" height="31" viewBox="0 0 151 31" fill="none" xmlns="http://www.w3.org/2000/svg">
<path d="M5.52 19.72V14.84H11.6C12.3733 14.84 13.08 14.68 13.72 14.36C14.36 14.04 14.8667 13.5733 15.24 12.96C15.6133 12.3467 15.8 11.6 15.8 10.72C15.8 9.86667 15.6133 9.13333 15.24 8.52C14.8667 7.90667 14.36 7.44 13.72 7.12C13.08 6.8 12.3733 6.64 11.6 6.64H5.52V1.76H12.52C14.3067 1.76 15.92 2.12 17.36 2.84C18.8 3.56 19.9333 4.6 20.76 5.96C21.6133 7.29333 22.04 8.88 22.04 10.72C22.04 12.56 21.6133 14.16 20.76 15.52C19.9333 16.8533 18.8 17.8933 17.36 18.64C15.92 19.36 14.3067 19.72 12.52 19.72H5.52ZM0.72 30V1.76H7V30H0.72ZM30.1769 30.4C28.3902 30.4 26.7902 29.96 25.3769 29.08C23.9902 28.2 22.8835 27 22.0569 25.48C21.2569 23.96 20.8569 22.2267 20.8569 20.28C20.8569 18.3333 21.2569 16.6 22.0569 15.08C22.8835 13.56 23.9902 12.36 25.3769 11.48C26.7902 10.6 28.3902 10.16 30.1769 10.16C31.4835 10.16 32.6569 10.4133 33.6969 10.92C34.7635 11.4267 35.6302 12.1333 36.2969 13.04C36.9635 13.92 37.3369 14.9333 37.4169 16.08V24.48C37.3369 25.6267 36.9635 26.6533 36.2969 27.56C35.6569 28.44 34.8035 29.1333 33.7369 29.64C32.6702 30.1467 31.4835 30.4 30.1769 30.4ZM31.4169 24.88C32.7235 24.88 33.7769 24.4533 34.5769 23.6C35.3769 22.72 35.7769 21.6133 35.7769 20.28C35.7769 19.3733 35.5902 18.5733 35.2169 17.88C34.8702 17.1867 34.3635 16.6533 33.6969 16.28C33.0569 15.88 32.3102 15.68 31.4569 15.68C30.6035 15.68 29.8435 15.88 29.1769 16.28C28.5369 16.6533 28.0169 17.1867 27.6169 17.88C27.2435 18.5733 27.0569 19.3733 27.0569 20.28C27.0569 21.16 27.2435 21.9467 27.6169 22.64C27.9902 23.3333 28.5102 23.88 29.1769 24.28C29.8435 24.68 30.5902 24.88 31.4169 24.88ZM35.5369 30V24.76L36.4569 20.04L35.5369 15.32V10.56H41.5369V30H35.5369ZM43.4459 30V10.56H49.5659V30H43.4459ZM49.5659 19.32L47.0059 17.32C47.5126 15.0533 48.3659 13.2933 49.5659 12.04C50.7659 10.7867 52.4326 10.16 54.5659 10.16C55.4993 10.16 56.3126 10.3067 57.0059 10.6C57.7259 10.8667 58.3526 11.2933 58.8859 11.88L55.2459 16.48C54.9793 16.1867 54.6459 15.96 54.2459 15.8C53.8459 15.64 53.3926 15.56 52.8859 15.56C51.8726 15.56 51.0593 15.88 50.4459 16.52C49.8593 17.1333 49.5659 18.0667 49.5659 19.32ZM65.6894 30.4C63.9027 30.4 62.3027 29.96 60.8894 29.08C59.5027 28.2 58.396 27 57.5694 25.48C56.7694 23.96 56.3694 22.2267 56.3694 20.28C56.3694 18.3333 56.7694 16.6 57.5694 15.08C58.396 13.56 59.5027 12.36 60.8894 11.48C62.3027 10.6 63.9027 10.16 65.6894 10.16C66.996 10.16 68.1694 10.4133 69.2094 10.92C70.276 11.4267 71.1427 12.1333 71.8094 13.04C72.476 13.92 72.8494 14.9333 72.9294 16.08V24.48C72.8494 25.6267 72.476 26.6533 71.8094 27.56C71.1694 28.44 70.316 29.1333 69.2494 29.64C68.1827 30.1467 66.996 30.4 65.6894 30.4ZM66.9294 24.88C68.236 24.88 69.2894 24.4533 70.0894 23.6C70.8894 22.72 71.2894 21.6133 71.2894 20.28C71.2894 19.3733 71.1027 18.5733 70.7294 17.88C70.3827 17.1867 69.876 16.6533 69.2094 16.28C68.5694 15.88 67.8227 15.68 66.9694 15.68C66.116 15.68 65.356 15.88 64.6894 16.28C64.0494 16.6533 63.5294 17.1867 63.1294 17.88C62.756 18.5733 62.5694 19.3733 62.5694 20.28C62.5694 21.16 62.756 21.9467 63.1294 22.64C63.5027 23.3333 64.0227 23.88 64.6894 24.28C65.356 24.68 66.1027 24.88 66.9294 24.88ZM71.0494 30V24.76L71.9694 20.04L71.0494 15.32V10.56H77.0494V30H71.0494ZM88.3584 30.44C86.3584 30.44 84.5451 30 82.9184 29.12C81.2918 28.24 80.0118 27.0267 79.0784 25.48C78.1451 23.9333 77.6784 22.2 77.6784 20.28C77.6784 18.3333 78.1451 16.6 79.0784 15.08C80.0384 13.5333 81.3318 12.32 82.9584 11.44C84.5851 10.56 86.4118 10.12 88.4384 10.12C89.9584 10.12 91.3451 10.3867 92.5984 10.92C93.8784 11.4267 95.0118 12.2 95.9984 13.24L92.0784 17.16C91.6251 16.6533 91.0918 16.28 90.4784 16.04C89.8918 15.8 89.2118 15.68 88.4384 15.68C87.5584 15.68 86.7718 15.88 86.0784 16.28C85.4118 16.6533 84.8784 17.1867 84.4784 17.88C84.1051 18.5467 83.9184 19.3333 83.9184 20.24C83.9184 21.1467 84.1051 21.9467 84.4784 22.64C84.8784 23.3333 85.4251 23.88 86.1184 24.28C86.8118 24.68 87.5851 24.88 88.4384 24.88C89.2384 24.88 89.9451 24.7467 90.5584 24.48C91.1984 24.1867 91.7451 23.7867 92.1984 23.28L96.0784 27.2C95.0651 28.2667 93.9184 29.08 92.6384 29.64C91.3584 30.1733 89.9318 30.44 88.3584 30.44ZM105.293 30.44C103.293 30.44 101.48 30 99.8534 29.12C98.2534 28.2133 96.9868 26.9867 96.0534 25.44C95.1201 23.8933 94.6534 22.16 94.6534 20.24C94.6534 18.32 95.1201 16.6 96.0534 15.08C96.9868 13.56 98.2534 12.36 99.8534 11.48C101.453 10.5733 103.267 10.12 105.293 10.12C107.32 10.12 109.133 10.56 110.733 11.44C112.333 12.32 113.6 13.5333 114.533 15.08C115.467 16.6 115.933 18.32 115.933 20.24C115.933 22.16 115.467 23.8933 114.533 25.44C113.6 26.9867 112.333 28.2133 110.733 29.12C109.133 30 107.32 30.44 105.293 30.44ZM105.293 24.88C106.173 24.88 106.947 24.6933 107.613 24.32C108.28 23.92 108.787 23.3733 109.133 22.68C109.507 21.96 109.693 21.1467 109.693 20.24C109.693 19.3333 109.507 18.5467 109.133 17.88C108.76 17.1867 108.24 16.6533 107.573 16.28C106.933 15.88 106.173 15.68 105.293 15.68C104.44 15.68 103.68 15.88 103.013 16.28C102.347 16.6533 101.827 17.1867 101.453 17.88C101.08 18.5733 100.893 19.3733 100.893 20.28C100.893 21.16 101.08 21.96 101.453 22.68C101.827 23.3733 102.347 23.92 103.013 24.32C103.68 24.6933 104.44 24.88 105.293 24.88ZM116.58 30V10.56H122.7V30H116.58ZM122.7 19.32L120.14 17.32C120.647 15.0533 121.5 13.2933 122.7 12.04C123.9 10.7867 125.567 10.16 127.7 10.16C128.634 10.16 129.447 10.3067 130.14 10.6C130.86 10.8667 131.487 11.2933 132.02 11.88L128.38 16.48C128.114 16.1867 127.78 15.96 127.38 15.8C126.98 15.64 126.527 15.56 126.02 15.56C125.007 15.56 124.194 15.88 123.58 16.52C122.994 17.1333 122.7 18.0667 122.7 19.32ZM138.984 30.4C137.144 30.4 135.504 29.96 134.064 29.08C132.65 28.2 131.53 27 130.704 25.48C129.904 23.96 129.504 22.2267 129.504 20.28C129.504 18.3333 129.904 16.6 130.704 15.08C131.53 13.56 132.65 12.36 134.064 11.48C135.504 10.6 137.144 10.16 138.984 10.16C140.317 10.16 141.517 10.4133 142.584 10.92C143.677 11.4267 144.57 12.1333 145.264 13.04C145.984 13.92 146.384 14.9333 146.464 16.08V24.28C146.384 25.4267 145.997 26.4667 145.304 27.4C144.61 28.3067 143.717 29.04 142.624 29.6C141.53 30.1333 140.317 30.4 138.984 30.4ZM140.064 24.88C140.944 24.88 141.704 24.6933 142.344 24.32C142.984 23.92 143.49 23.3733 143.864 22.68C144.237 21.9867 144.424 21.1867 144.424 20.28C144.424 19.3733 144.237 18.5867 143.864 17.92C143.517 17.2267 143.01 16.68 142.344 16.28C141.704 15.88 140.957 15.68 140.104 15.68C139.25 15.68 138.49 15.88 137.824 16.28C137.184 16.68 136.664 17.2267 136.264 17.92C135.89 18.6133 135.704 19.4 135.704 20.28C135.704 21.16 135.89 21.9467 136.264 22.64C136.637 23.3333 137.157 23.88 137.824 24.28C138.49 24.68 139.237 24.88 140.064 24.88ZM150.184 30H144.184V24.76L145.104 20.04L144.064 15.32V0.96H150.184V30Z" fill="#0F0F0F"/>
<path d="M-2 35H152.344V37H-2V35Z" fill="#0F0F0F"/>
</svg>
